<svg width="223" height="26" viewBox="0 0 223 26" fill="none" xmlns="http://www.w3.org/2000/svg">
<path fill-rule="evenodd" clip-rule="evenodd" d="M101.606 4C98.2596 4 95.5472 6.68629 95.5472 10C95.5472 13.3137 98.2596 16 101.606 16C104.951 16 107.664 13.3137 107.664 10C107.664 6.68629 104.951 4 101.606 4ZM93.5278 10C93.5278 5.58172 97.1443 2 101.606 2C106.067 2 109.683 5.58172 109.683 10C109.683 14.4183 106.067 18 101.606 18C97.1443 18 93.5278 14.4183 93.5278 10Z" fill="#0066CC"/>
<path fill-rule="evenodd" clip-rule="evenodd" d="M101.325 18C99.7161 18 98.1069 18.5581 96.6575 19.664C95.2036 20.7733 93.9641 22.3951 93.0916 24.3927C92.9307 24.7611 92.5605 25 92.1509 25H82.434C81.8691 25 81.4111 24.5523 81.4111 24C81.4111 23.4477 81.8691 23 82.434 23H91.4904C92.4606 21.0053 93.7925 19.313 95.3988 18.0873C97.1702 16.7357 99.2146 16 101.325 16C103.435 16 105.48 16.7357 107.251 18.0873C108.857 19.313 110.189 21.0053 111.159 23H119.767C120.332 23 120.79 23.4477 120.79 24C120.79 24.5523 120.332 25 119.767 25H110.499C110.089 25 109.719 24.7611 109.558 24.3927C108.686 22.3951 107.446 20.7733 105.992 19.664C104.543 18.5581 102.934 18 101.325 18Z" fill="#0066CC"/>
<path fill-rule="evenodd" clip-rule="evenodd" d="M127.354 8.8C125.848 8.8 124.627 10.0088 124.627 11.5C124.627 12.9912 125.848 14.2 127.354 14.2C128.859 14.2 130.08 12.9912 130.08 11.5C130.08 10.0088 128.859 8.8 127.354 8.8ZM122.81 11.5C122.81 9.01472 124.844 7 127.354 7C129.863 7 131.897 9.01472 131.897 11.5C131.897 13.9853 129.863 16 127.354 16C124.844 16 122.81 13.9853 122.81 11.5Z" fill="#0066CC"/>
<path fill-rule="evenodd" clip-rule="evenodd" d="M127.353 3C125.219 3 123.168 3.86085 121.651 5.40173C120.133 6.94347 119.276 9.03978 119.276 11.2308C119.276 16.3124 123.009 20.7663 125.675 23.2751C125.974 23.5569 126.07 23.9909 125.917 24.3709C125.764 24.7508 125.392 25 124.979 25H117.761C117.203 25 116.751 24.5523 116.751 24C116.751 23.4477 117.203 23 117.761 23H122.588C120.072 20.2275 117.256 16.058 117.256 11.2308C117.256 8.52545 118.314 5.926 120.205 4.00553C122.096 2.0842 124.667 1 127.353 1C130.04 1 132.611 2.0842 134.502 4.00553C136.393 5.926 137.451 8.52545 137.451 11.2308C137.451 16.058 134.634 20.2275 132.119 23H146.033C146.591 23 147.043 23.4477 147.043 24C147.043 24.5523 146.591 25 146.033 25H129.728C129.315 25 128.943 24.7508 128.79 24.3709C128.637 23.9909 128.733 23.5569 129.032 23.2751C131.698 20.7663 135.431 16.3124 135.431 11.2308C135.431 9.03978 134.574 6.94347 133.056 5.40173C131.539 3.86085 129.487 3 127.353 3Z" fill="#0066CC"/>
<path d="M23.6535 12.1518H14.3716C13.4161 12.1518 12.6654 12.9134 12.6654 13.8828C12.6654 14.8176 13.4161 15.6138 14.3716 15.6138H21.7767C20.9918 19.4913 17.5793 22.4341 13.4844 22.4341C8.84339 22.4341 5.05554 18.5912 5.05554 13.8828C5.05554 9.13981 8.80926 5.33156 13.4502 5.29694C16.1461 5.29694 18.3642 6.26631 20.3093 8.58588C20.9235 9.31292 21.8449 9.69374 22.698 9.20905C23.517 8.72437 23.8924 7.61651 23.3123 6.82024C20.7529 3.35819 17.3063 1.73103 13.4502 1.83489C11.8805 1.83489 10.3449 2.14647 8.87751 2.76964C7.4784 3.39281 6.21578 4.25832 5.12379 5.36618C4.0318 6.47403 3.17868 7.75499 2.56443 9.17443C1.95019 10.6631 1.64307 12.2557 1.64307 13.8828C1.64307 15.4754 1.95019 17.0679 2.56443 18.5566C3.17868 19.976 4.0318 21.257 5.12379 22.3648C6.21578 23.4727 7.4784 24.3382 8.87751 24.9614C10.3449 25.5846 11.9146 25.8961 13.4844 25.8961C15.0882 25.8961 16.658 25.5846 18.1253 24.9614C19.5244 24.3382 20.787 23.4727 21.879 22.3648C22.971 21.257 23.8242 19.976 24.4384 18.5566C25.0526 17.0679 25.3598 15.4754 25.3598 13.8828C25.3598 12.9134 24.5749 12.1518 23.6535 12.1518Z" fill="#333333"/>
<path d="M39.5541 8.62051C38.5986 8.62051 37.8478 9.38216 37.8478 10.3169V18.972C37.8478 20.9454 36.2781 22.5726 34.2988 22.5726C32.3537 22.5726 30.784 20.9454 30.784 18.972V10.3169C30.784 9.38216 30.0333 8.62051 29.0778 8.62051C28.1564 8.62051 27.4056 9.38216 27.4056 10.3169V19.0067V19.0413C27.4398 22.8842 30.511 26 34.2988 26C38.1208 26 41.192 22.8842 41.2262 19.0413V19.0067V10.3169C41.2262 9.38216 40.4754 8.62051 39.5541 8.62051Z" fill="#333333"/>
<path d="M51.847 8.58588C47.1036 8.58588 43.2816 12.4634 43.2816 17.2756C43.2816 22.0533 47.1036 25.9654 51.847 25.9654C53.1096 25.9654 54.8499 26 57.1022 24.4767C57.887 23.9574 58.3307 23.0573 57.9212 22.1917C57.5117 21.3609 56.4538 20.8762 55.6689 21.3955C54.0309 22.4687 52.6318 22.5379 51.847 22.5379C49.5606 22.5379 47.6496 21.0493 46.933 18.972H58.706C59.6615 18.972 60.4123 18.2104 60.4123 17.2756C60.4123 11.6325 55.9761 8.58588 51.847 8.58588ZM51.847 12.0133C53.8944 12.0133 56.0784 13.1212 56.795 15.5446H46.933C47.6496 13.502 49.5606 12.0133 51.847 12.0133Z" fill="#333333"/>
<path d="M72.3247 16.8948C69.4924 14.6791 65.8069 16.3063 65.8069 13.8136C65.8069 12.6365 66.8989 11.9095 68.1615 11.9095C69.117 11.9095 70.5503 12.221 71.028 13.1904C71.4375 13.8136 71.7787 14.3675 72.5977 14.3675C73.5191 14.3675 74.2699 13.5712 74.3381 12.7057C74.3381 10.5939 71.847 9.4514 71.5057 9.27829C70.482 8.75899 69.3559 8.48203 68.2298 8.48203C65.2268 8.48203 62.4627 10.4554 62.4627 13.779C62.4627 17.5872 66.0458 18.7297 68.1274 18.972C69.7654 19.1451 70.9597 19.6298 70.9597 20.8069C70.9256 21.0839 70.755 22.6072 68.571 22.6072C67.1037 22.5379 66.2847 22.0879 65.4998 20.98C65.1927 20.5646 64.6808 20.3222 64.203 20.3222C63.2476 20.3222 62.4627 21.1531 62.4627 22.0186C62.4627 22.1917 62.4627 22.3648 62.5309 22.5033C63.4523 24.9268 66.2505 26 68.6393 26C73.6215 26 74.3381 21.8109 74.3381 20.8069C74.3381 19.3875 73.5532 17.8988 72.3247 16.8948Z" fill="#333333"/>
<path d="M85.7632 8.62051H83.3404V1.69641C83.3404 0.761652 82.5896 0 81.6341 0C80.7128 0 79.962 0.761652 79.962 1.69641V8.62051H77.505C76.5837 8.62051 75.8329 9.38216 75.8329 10.3169C75.8329 11.2517 76.5837 12.0479 77.505 12.0479H79.962V24.269C79.962 25.2037 80.7128 26 81.6341 26C82.5896 26 83.3404 25.2037 83.3404 24.269V12.0479H85.7632C86.7187 12.0479 87.4695 11.2517 87.4695 10.3169C87.4695 9.38216 86.7187 8.62051 85.7632 8.62051Z" fill="#333333"/>
<path d="M153.187 1.73333C150.61 1.73333 145.732 1.73333 145.732 1.73333C144.77 1.73333 144.014 2.496 144.014 3.46667V24.1973C144.014 25.168 144.77 25.9307 145.732 25.9307C146.659 25.9307 147.449 25.168 147.449 24.1973V15.6347C153.083 15.6347 153.221 15.6347 153.324 15.6C157.103 15.184 159.886 12.2373 159.886 8.632C159.886 4.92267 156.897 1.872 153.187 1.73333ZM147.449 12.168V5.2H152.912C154.87 5.2 156.45 6.69067 156.485 8.632C156.45 10.608 154.87 12.168 152.912 12.168H147.449Z" fill="#333333"/>
<path d="M163.68 26C164.608 26 165.364 25.2373 165.364 24.2667V1.69867C165.364 0.762665 164.608 0 163.68 0C162.719 0 161.963 0.762665 161.963 1.69867V24.2667C161.963 25.2373 162.719 26 163.68 26Z" fill="#333333"/>
<path d="M176.152 8.632C171.308 8.632 167.46 12.5147 167.46 17.4027C167.46 22.2907 171.308 25.9307 176.152 25.9307C178.11 25.9307 179.759 25.4453 181.236 24.1973C181.236 25.2027 182.198 25.9307 182.885 25.9307C183.881 25.9307 184.603 25.2027 184.603 24.1973V17.4027C184.603 12.5147 180.996 8.632 176.152 8.632ZM176.152 22.5333C173.266 22.5333 170.827 20.3147 170.827 17.4027C170.827 14.4907 173.266 12.0293 176.152 12.0293C179.037 12.0293 181.236 14.4907 181.236 17.4027C181.236 20.3147 179.037 22.5333 176.152 22.5333Z" fill="#333333"/>
<path d="M195.24 26C198.194 26 200.908 24.5093 202.488 22.0133C203.004 21.216 202.798 20.1413 202.007 19.6213C201.217 19.136 200.152 19.344 199.637 20.1413C198.675 21.6667 197.026 22.568 195.24 22.568C192.388 22.568 190.018 20.176 190.018 17.2987C190.018 14.3867 192.388 12.0293 195.24 12.0293C197.129 12.0293 198.847 13.0347 199.774 14.664C200.255 15.4613 201.286 15.7387 202.11 15.288C202.901 14.8027 203.21 13.7627 202.729 12.9307C201.183 10.2613 198.331 8.59733 195.24 8.59733C190.499 8.59733 186.651 12.48 186.651 17.2987C186.651 22.0827 190.499 26 195.24 26Z" fill="#333333"/>
<path d="M213.14 8.56267C208.364 8.56267 204.517 12.4453 204.517 17.264C204.517 22.048 208.364 25.9653 213.14 25.9653C214.411 25.9653 216.163 26 218.43 24.4747C219.22 23.9547 219.667 23.0533 219.255 22.1867C218.842 21.3547 217.777 20.8693 216.987 21.3893C215.338 22.464 213.93 22.5333 213.14 22.5333C210.838 22.5333 208.914 21.0427 208.193 18.9627H220.045C221.007 18.9627 221.763 18.2 221.763 17.264C221.763 11.6133 217.296 8.56267 213.14 8.56267ZM213.14 11.9947C215.201 11.9947 217.4 13.104 218.121 15.5307H208.193C208.914 13.4853 210.838 11.9947 213.14 11.9947Z" fill="#333333"/>
</svg>
