<svg width="26" height="26" viewBox="0 0 26 26" fill="none" xmlns="http://www.w3.org/2000/svg">
<path d="M14.4439 21.0778C13.5646 21.6775 12.4354 21.6775 11.5561 21.0778C8.78666 19.1887 3 14.6085 3 9.31819C3.0002 8.08901 3.41665 6.89784 4.17854 5.94719C4.94044 4.99655 6.00074 4.34512 7.17919 4.10365C8.35764 3.86218 9.58148 4.04559 10.6427 4.62268C11.7038 5.19977 12.5368 6.13492 13 7.26915C13.4632 6.13492 14.2962 5.19977 15.3573 4.62268C16.4185 4.04559 17.6424 3.86219 18.8208 4.10365C19.9993 4.34512 21.0596 4.99655 21.8215 5.94719C22.5833 6.89784 22.9998 8.08901 23 9.31819C23 14.6085 17.2133 19.1887 14.4439 21.0778Z" stroke="#333333" stroke-linecap="round" stroke-linejoin="round"/>
</svg>
