<svg width="28" height="28" viewBox="0 0 28 28" fill="none" xmlns="http://www.w3.org/2000/svg">
<path d="M5.46939 19.857C4.16429 17.6569 3.70723 15.0561 4.18404 12.5428C4.66085 10.0296 6.03873 7.7769 8.05894 6.20769C10.0792 4.63849 12.6027 3.86075 15.1558 4.02051C17.7088 4.18027 20.1158 5.26655 21.9246 7.07537C23.7334 8.88418 24.8197 11.2911 24.9795 13.8442C25.1393 16.3972 24.3615 18.9208 22.7923 20.941C21.2231 22.9612 18.9704 24.3391 16.4572 24.8159C13.944 25.2928 11.3431 24.8357 9.14305 23.5306L9.14307 23.5305L5.51506 24.5671C5.36496 24.61 5.20611 24.612 5.055 24.5728C4.90388 24.5336 4.76598 24.4548 4.65559 24.3444C4.54521 24.234 4.46635 24.0961 4.42719 23.945C4.38803 23.7939 4.39 23.635 4.43289 23.4849L5.46946 19.8569L5.46939 19.857Z" stroke="#333333" stroke-linecap="round" stroke-linejoin="round"/>
</svg>
