<svg width="104" height="27" viewBox="0 0 104 27" fill="none" xmlns="http://www.w3.org/2000/svg">
<path d="M9.456 20.168C7.872 20.168 6.416 19.8 5.088 19.064C3.776 18.328 2.728 17.304 1.944 15.992C1.176 14.664 0.792 13.176 0.792 11.528C0.792 9.88 1.176 8.4 1.944 7.088C2.728 5.776 3.776 4.752 5.088 4.016C6.416 3.28 7.872 2.912 9.456 2.912C11.04 2.912 12.488 3.28 13.8 4.016C15.128 4.752 16.168 5.776 16.92 7.088C17.688 8.4 18.072 9.88 18.072 11.528C18.072 13.176 17.688 14.664 16.92 15.992C16.152 17.304 15.112 18.328 13.8 19.064C12.488 19.8 11.04 20.168 9.456 20.168ZM9.456 16.424C10.8 16.424 11.872 15.976 12.672 15.08C13.488 14.184 13.896 13 13.896 11.528C13.896 10.04 13.488 8.856 12.672 7.976C11.872 7.08 10.8 6.632 9.456 6.632C8.096 6.632 7.008 7.072 6.192 7.952C5.392 8.832 4.992 10.024 4.992 11.528C4.992 13.016 5.392 14.208 6.192 15.104C7.008 15.984 8.096 16.424 9.456 16.424ZM24.4592 8.504C24.8592 7.88 25.4112 7.376 26.1152 6.992C26.8192 6.608 27.6432 6.416 28.5872 6.416C29.6912 6.416 30.6912 6.696 31.5872 7.256C32.4832 7.816 33.1872 8.616 33.6992 9.656C34.2272 10.696 34.4912 11.904 34.4912 13.28C34.4912 14.656 34.2272 15.872 33.6992 16.928C33.1872 17.968 32.4832 18.776 31.5872 19.352C30.6912 19.912 29.6912 20.192 28.5872 20.192C27.6592 20.192 26.8352 20 26.1152 19.616C25.4112 19.232 24.8592 18.736 24.4592 18.128V26.384H20.3552V6.608H24.4592V8.504ZM30.3152 13.28C30.3152 12.256 30.0272 11.456 29.4512 10.88C28.8912 10.288 28.1952 9.992 27.3632 9.992C26.5472 9.992 25.8512 10.288 25.2752 10.88C24.7152 11.472 24.4352 12.28 24.4352 13.304C24.4352 14.328 24.7152 15.136 25.2752 15.728C25.8512 16.32 26.5472 16.616 27.3632 16.616C28.1792 16.616 28.8752 16.32 29.4512 15.728C30.0272 15.12 30.3152 14.304 30.3152 13.28ZM49.2682 13.088C49.2682 13.472 49.2443 13.872 49.1963 14.288H39.9083C39.9723 15.12 40.2363 15.76 40.7003 16.208C41.1803 16.64 41.7643 16.856 42.4523 16.856C43.4763 16.856 44.1883 16.424 44.5883 15.56H48.9563C48.7323 16.44 48.3243 17.232 47.7323 17.936C47.1563 18.64 46.4283 19.192 45.5483 19.592C44.6683 19.992 43.6843 20.192 42.5963 20.192C41.2843 20.192 40.1163 19.912 39.0923 19.352C38.0683 18.792 37.2683 17.992 36.6923 16.952C36.1163 15.912 35.8283 14.696 35.8283 13.304C35.8283 11.912 36.1083 10.696 36.6683 9.656C37.2443 8.616 38.0443 7.816 39.0683 7.256C40.0923 6.696 41.2683 6.416 42.5963 6.416C43.8923 6.416 45.0443 6.688 46.0523 7.232C47.0603 7.776 47.8443 8.552 48.4043 9.56C48.9803 10.568 49.2682 11.744 49.2682 13.088ZM45.0683 12.008C45.0683 11.304 44.8283 10.744 44.3483 10.328C43.8683 9.912 43.2683 9.704 42.5483 9.704C41.8603 9.704 41.2763 9.904 40.7963 10.304C40.3323 10.704 40.0443 11.272 39.9323 12.008H45.0683ZM59.5933 6.464C61.1613 6.464 62.4093 6.976 63.3373 8C64.2813 9.008 64.7533 10.4 64.7533 12.176V20H60.6733V12.728C60.6733 11.832 60.4413 11.136 59.9773 10.64C59.5133 10.144 58.8893 9.896 58.1053 9.896C57.3213 9.896 56.6973 10.144 56.2333 10.64C55.7693 11.136 55.5373 11.832 55.5373 12.728V20H51.4333V6.608H55.5373V8.384C55.9533 7.792 56.5133 7.328 57.2173 6.992C57.9213 6.64 58.7133 6.464 59.5933 6.464ZM77.8052 11.36C78.7812 11.568 79.5652 12.056 80.1572 12.824C80.7492 13.576 81.0452 14.44 81.0452 15.416C81.0452 16.824 80.5492 17.944 79.5572 18.776C78.5812 19.592 77.2132 20 75.4532 20H67.6052V3.152H75.1892C76.9012 3.152 78.2372 3.544 79.1972 4.328C80.1732 5.112 80.6612 6.176 80.6612 7.52C80.6612 8.512 80.3972 9.336 79.8692 9.992C79.3572 10.648 78.6692 11.104 77.8052 11.36ZM71.7092 9.968H74.3972C75.0692 9.968 75.5812 9.824 75.9332 9.536C76.3012 9.232 76.4852 8.792 76.4852 8.216C76.4852 7.64 76.3012 7.2 75.9332 6.896C75.5812 6.592 75.0692 6.44 74.3972 6.44H71.7092V9.968ZM74.7332 16.688C75.4212 16.688 75.9492 16.536 76.3172 16.232C76.7012 15.912 76.8932 15.456 76.8932 14.864C76.8932 14.272 76.6932 13.808 76.2932 13.472C75.9092 13.136 75.3732 12.968 74.6852 12.968H71.7092V16.688H74.7332ZM85.4895 5.216C84.7695 5.216 84.1775 5.008 83.7135 4.592C83.2655 4.16 83.0415 3.632 83.0415 3.008C83.0415 2.368 83.2655 1.84 83.7135 1.424C84.1775 0.991999 84.7695 0.775999 85.4895 0.775999C86.1935 0.775999 86.7695 0.991999 87.2175 1.424C87.6815 1.84 87.9135 2.368 87.9135 3.008C87.9135 3.632 87.6815 4.16 87.2175 4.592C86.7695 5.008 86.1935 5.216 85.4895 5.216ZM87.5295 6.608V20H83.4255V6.608H87.5295ZM89.6876 13.28C89.6876 11.904 89.9436 10.696 90.4556 9.656C90.9836 8.616 91.6956 7.816 92.5916 7.256C93.4876 6.696 94.4876 6.416 95.5916 6.416C96.4716 6.416 97.2716 6.6 97.9916 6.968C98.7276 7.336 99.3036 7.832 99.7196 8.456V2.24H103.824V20H99.7196V18.08C99.3356 18.72 98.7836 19.232 98.0636 19.616C97.3596 20 96.5356 20.192 95.5916 20.192C94.4876 20.192 93.4876 19.912 92.5916 19.352C91.6956 18.776 90.9836 17.968 90.4556 16.928C89.9436 15.872 89.6876 14.656 89.6876 13.28ZM99.7196 13.304C99.7196 12.28 99.4316 11.472 98.8556 10.88C98.2956 10.288 97.6076 9.992 96.7916 9.992C95.9756 9.992 95.2796 10.288 94.7036 10.88C94.1436 11.456 93.8636 12.256 93.8636 13.28C93.8636 14.304 94.1436 15.12 94.7036 15.728C95.2796 16.32 95.9756 16.616 96.7916 16.616C97.6076 16.616 98.2956 16.32 98.8556 15.728C99.4316 15.136 99.7196 14.328 99.7196 13.304Z" fill="#333333"/>
</svg>
