<svg width="89" height="16" viewBox="0 0 89 16" fill="none" xmlns="http://www.w3.org/2000/svg">
<path d="M80.0489 2.92705C80.3483 2.00574 81.6517 2.00574 81.9511 2.92705L82.5716 4.83688C82.7055 5.2489 83.0894 5.52786 83.5227 5.52786H85.5308C86.4995 5.52786 86.9023 6.76748 86.1186 7.33688L84.494 8.51722C84.1435 8.77187 83.9968 9.22323 84.1307 9.63525L84.7512 11.5451C85.0506 12.4664 83.9961 13.2325 83.2124 12.6631L81.5878 11.4828C81.2373 11.2281 80.7627 11.2281 80.4122 11.4828L78.7876 12.6631C78.0039 13.2325 76.9494 12.4664 77.2488 11.5451L77.8693 9.63526C78.0032 9.22323 77.8565 8.77186 77.506 8.51722L75.8814 7.33688C75.0977 6.76748 75.5005 5.52786 76.4692 5.52786H78.4773C78.9106 5.52786 79.2945 5.2489 79.4284 4.83688L80.0489 2.92705Z" fill="#0066CC"/>
<path d="M62.0489 2.92705C62.3483 2.00574 63.6517 2.00574 63.9511 2.92705L64.5716 4.83688C64.7055 5.2489 65.0894 5.52786 65.5227 5.52786H67.5308C68.4995 5.52786 68.9023 6.76748 68.1186 7.33688L66.494 8.51722C66.1435 8.77187 65.9968 9.22323 66.1307 9.63525L66.7512 11.5451C67.0506 12.4664 65.9961 13.2325 65.2124 12.6631L63.5878 11.4828C63.2373 11.2281 62.7627 11.2281 62.4122 11.4828L60.7876 12.6631C60.0039 13.2325 58.9494 12.4664 59.2488 11.5451L59.8693 9.63526C60.0032 9.22323 59.8565 8.77186 59.506 8.51722L57.8814 7.33688C57.0977 6.76748 57.5005 5.52786 58.4692 5.52786H60.4773C60.9106 5.52786 61.2945 5.2489 61.4284 4.83688L62.0489 2.92705Z" fill="#0066CC"/>
<path d="M43.0489 2.92705C43.3483 2.00574 44.6517 2.00574 44.9511 2.92705L45.5716 4.83688C45.7055 5.2489 46.0894 5.52786 46.5227 5.52786H48.5308C49.4995 5.52786 49.9023 6.76748 49.1186 7.33688L47.494 8.51722C47.1435 8.77187 46.9968 9.22323 47.1307 9.63525L47.7512 11.5451C48.0506 12.4664 46.9961 13.2325 46.2124 12.6631L44.5878 11.4828C44.2373 11.2281 43.7627 11.2281 43.4122 11.4828L41.7876 12.6631C41.0039 13.2325 39.9494 12.4664 40.2488 11.5451L40.8693 9.63526C41.0032 9.22323 40.8565 8.77186 40.506 8.51722L38.8814 7.33688C38.0977 6.76748 38.5005 5.52786 39.4692 5.52786H41.4773C41.9106 5.52786 42.2945 5.2489 42.4284 4.83688L43.0489 2.92705Z" fill="#0066CC"/>
<path d="M25.0489 2.92705C25.3483 2.00574 26.6517 2.00574 26.9511 2.92705L27.5716 4.83688C27.7055 5.2489 28.0894 5.52786 28.5227 5.52786H30.5308C31.4995 5.52786 31.9023 6.76748 31.1186 7.33688L29.494 8.51722C29.1435 8.77187 28.9968 9.22323 29.1307 9.63525L29.7512 11.5451C30.0506 12.4664 28.9961 13.2325 28.2124 12.6631L26.5878 11.4828C26.2373 11.2281 25.7627 11.2281 25.4122 11.4828L23.7876 12.6631C23.0039 13.2325 21.9494 12.4664 22.2488 11.5451L22.8693 9.63526C23.0032 9.22323 22.8565 8.77186 22.506 8.51722L20.8814 7.33688C20.0977 6.76748 20.5005 5.52786 21.4692 5.52786H23.4773C23.9106 5.52786 24.2945 5.2489 24.4284 4.83688L25.0489 2.92705Z" fill="#0066CC"/>
<path d="M7.04894 2.92705C7.3483 2.00574 8.6517 2.00574 8.95106 2.92705L9.5716 4.83688C9.70547 5.2489 10.0894 5.52786 10.5227 5.52786H12.5308C13.4995 5.52786 13.9023 6.76748 13.1186 7.33688L11.494 8.51722C11.1435 8.77187 10.9968 9.22323 11.1307 9.63525L11.7512 11.5451C12.0506 12.4664 10.9961 13.2325 10.2124 12.6631L8.58778 11.4828C8.2373 11.2281 7.7627 11.2281 7.41221 11.4828L5.78761 12.6631C5.0039 13.2325 3.94942 12.4664 4.24878 11.5451L4.86932 9.63526C5.00319 9.22323 4.85653 8.77186 4.50604 8.51722L2.88144 7.33688C2.09773 6.76748 2.50051 5.52786 3.46923 5.52786H5.47735C5.91057 5.52786 6.29453 5.2489 6.4284 4.83688L7.04894 2.92705Z" fill="#0066CC"/>
</svg>
