<svg width="20" height="20" viewBox="0 0 20 20" fill="none" xmlns="http://www.w3.org/2000/svg">
<path d="M7 12C9.20914 12 11 10.2091 11 8C11 5.79086 9.20914 4 7 4C4.79086 4 3 5.79086 3 8C3 10.2091 4.79086 12 7 12Z" stroke="#333333" stroke-miterlimit="10"/>
<path d="M12 4.1499C12.5409 3.99491 13.1083 3.9596 13.6637 4.04635C14.2192 4.13311 14.75 4.33991 15.2202 4.65283C15.6905 4.96575 16.0894 5.37752 16.39 5.86041C16.6906 6.3433 16.886 6.88609 16.9629 7.45223C17.0399 8.01837 16.9967 8.59471 16.8362 9.14243C16.6757 9.69015 16.4016 10.1965 16.0324 10.6275C15.6633 11.0584 15.2076 11.4039 14.6961 11.6406C14.1846 11.8774 13.6291 11.9999 13.0671 12" stroke="#333333" stroke-linecap="round" stroke-linejoin="round"/>
<path d="M1 16C1.62036 15.0733 2.44393 14.3169 3.40117 13.7948C4.35841 13.2726 5.42123 13 6.49989 13C7.57855 13 8.64139 13.2725 9.59867 13.7945C10.5559 14.3166 11.3796 15.0729 12 15.9996" stroke="#333333" stroke-linecap="round" stroke-linejoin="round"/>
<path d="M13 13C14.1769 12.9992 15.3366 13.2714 16.381 13.7936C17.4254 14.3158 18.3238 15.0726 19 16" stroke="#333333" stroke-linecap="round" stroke-linejoin="round"/>
</svg>
