<svg width="20" height="20" viewBox="0 0 20 20" fill="none" xmlns="http://www.w3.org/2000/svg">
<path d="M3 5.3V15.7C3 16.0448 3.12826 16.3754 3.35657 16.6192C3.58487 16.863 3.89452 17 4.21739 17H16.3913C16.5527 17 16.7076 16.9315 16.8217 16.8096C16.9359 16.6877 17 16.5224 17 16.35V7.25C17 7.07761 16.9359 6.91228 16.8217 6.79038C16.7076 6.66848 16.5527 6.6 16.3913 6.6H4.21739C3.89452 6.6 3.58487 6.46304 3.35657 6.21924C3.12826 5.97544 3 5.64478 3 5.3ZM3 5.3C3 4.95522 3.12826 4.62456 3.35657 4.38076C3.58487 4.13696 3.89452 4 4.21739 4H14.5652" stroke="#333333" stroke-linecap="round" stroke-linejoin="round"/>
<path d="M13.5 12C13.7761 12 14 11.7761 14 11.5C14 11.2239 13.7761 11 13.5 11C13.2239 11 13 11.2239 13 11.5C13 11.7761 13.2239 12 13.5 12Z" fill="#333333"/>
</svg>
